<?xml version="1.0" encoding="UTF-8" standalone="no"?>
<!-- Created with Inkscape (http://www.inkscape.org/) -->

<svg
   width="768.81799mm"
   height="116.88361mm"
   viewBox="0 0 768.81799 116.88361"
   version="1.1"
   id="svg1"
   xmlns="http://www.w3.org/2000/svg"
   xmlns:svg="http://www.w3.org/2000/svg">
  <defs
     id="defs1" />
  <g
     id="layer1"
     transform="translate(487.17576,-40.393058)">
    <rect
       style="fill:none;fill-opacity:1;stroke:#ff9955;stroke-width:10.2781;stroke-linecap:round;stroke-linejoin:round;stroke-dasharray:none;stroke-opacity:1"
       id="rect1"
       width="750.55072"
       height="106.6055"
       x="-482.03671"
       y="45.532108"
       ry="37.157558" />
    <rect
       style="fill:#ff9955;stroke:#000000;stroke-width:0;stroke-linejoin:round"
       id="rect2"
       width="13.128442"
       height="116.88361"
       x="268.51376"
       y="40.393059"
       ry="9.4682226" />
    <path
       style="font-size:105.833px;line-height:0.9;font-family:'Zatanna Misdirection';-inkscape-font-specification:'Zatanna Misdirection';text-align:end;text-anchor:end;fill:#ff9955;stroke:#ff9955;stroke-width:0;stroke-linecap:round;stroke-linejoin:round"
       d="m -436.33496,64.038899 q 37.00021,0 44.80333,10.80034 1.0852,2.015374 3.2556,14.572708 0,13.694213 -15.08947,23.202643 -6.14947,1.60197 -17.31155,1.60197 h -3.77237 l -3.2556,0.56844 q -6.45953,-1.65365 -6.45953,-4.85757 0,-4.85757 14.05594,-4.85757 19.43028,-2.06705 19.43028,-13.48751 v -5.426008 q 0,-9.095024 -18.34508,-11.885542 l -13.53918,-1.085202 q -6.9763,0 -6.9763,9.715139 -1.65364,14.521032 -1.65364,24.856283 v 2.68717 q 0,6.3045 2.17041,8.62994 -0.82682,18.91351 -5.37434,18.91351 h -0.56843 q -7.54474,-1.39526 -7.54474,-5.37433 1.0852,-28.16357 1.0852,-34.571426 0,-4.599188 -2.1704,-22.685882 0,-9.611787 13.4875,-10.800341 1.65365,0 3.77237,-0.516762 z m 111.46572,20.980565 q 4.49584,0 4.49584,5.632713 0,3.358958 -1.08521,12.970743 0,0.82682 1.08521,5.06428 -0.56844,8.83664 -0.56844,12.97074 0,1.18855 0.56844,6.20115 -2.42879,6.76959 -6.20116,6.76959 -4.28913,0 -9.56011,-14.10762 -5.78774,-3.9274 -13.53918,-3.9274 h -2.22208 q -12.4023,0 -12.4023,8.99168 -0.31006,12.4023 -5.06428,12.4023 -3.56566,0 -5.06427,-6.76959 1.0852,-8.88832 1.0852,-10.12855 -0.56844,-9.1467 -3.9274,-25.373048 1.34359,-9.56011 2.8422,-9.56011 h 1.65364 q 7.90647,0 7.90647,15.761258 0,4.49584 4.49583,5.06428 h 14.67606 q 14.05595,0 14.05595,-7.286355 0,-3.824044 -1.13688,-9.043348 0,-5.632713 7.90647,-5.632713 z m 37.56865,-0.155029 q 8.83664,0 18.55178,31.987615 1.13688,0.41341 3.61734,14.41768 0.67179,0 1.55029,3.10057 0,3.25561 -4.65086,3.61734 -2.53214,-0.0517 -7.18301,-7.75144 -1.0852,-1.55029 -12.4023,-3.10058 -2.06705,-2.89387 -2.06705,-3.56566 0,-3.10058 7.23468,-5.16763 1.55028,-1.34358 1.55028,-3.10057 v -2.58382 q -2.06705,-9.30172 -6.71791,-9.30172 h -0.51676 q -4.39249,0 -10.80034,28.37027 -2.89387,6.20115 -7.75144,6.20115 -1.55029,0 -3.10058,-3.10058 8.2682,-31.31582 15.4512,-41.754422 1.08521,-8.268203 7.23468,-8.268203 z m 53.1232,0.103353 q 16.43306,0 23.97779,10.025196 1.03353,1.963698 1.03353,5.477686 0,6.82127 -10.54196,16.01964 v 0.51676 q 0,6.56289 12.04057,14.46936 0.36173,2.01537 0.98185,2.01537 -1.39526,3.41064 -3.51399,4.49584 h -1.9637 q -6.14947,0 -15.50288,-11.98889 -4.03075,-3.51399 -7.54473,-3.51399 -7.75144,0 -9.45676,3.51399 v 0.46508 q 0.10335,5.0126 0.98185,5.0126 0,3.77237 -5.99445,5.99445 -5.0126,-1.60197 -5.0126,-9.50844 0.98185,-7.02797 0.98185,-9.45675 0,-3.9274 -1.49861,-10.54196 l 0.51676,-2.48046 v -2.99723 q 0,-1.55028 -1.49861,-9.50843 0,-3.669016 3.51399,-5.994448 h 1.9637 q 4.28913,0 16.5364,-2.015374 z m -11.52381,17.518252 v 5.0126 q 0,5.99445 5.0126,5.99445 h 3.51399 q 17.46658,-5.11595 17.46658,-13.02242 0,-5.0126 -15.96797,-6.511211 -8.31988,0 -10.0252,8.526581 z m 70.38307,-17.621605 q 8.83664,0 18.55178,31.987615 1.13687,0.41341 3.61733,14.41768 0.6718,0 1.55029,3.10057 0,3.25561 -4.65086,3.61734 -2.53214,-0.0517 -7.183,-7.75144 -1.0852,-1.55029 -12.40231,-3.10058 -2.06705,-2.89387 -2.06705,-3.56566 0,-3.10058 7.23468,-5.16763 1.55029,-1.34358 1.55029,-3.10057 v -2.58382 q -2.06705,-9.30172 -6.71792,-9.30172 h -0.51676 q -4.39248,0 -10.80034,28.37027 -2.89387,6.20115 -7.75144,6.20115 -1.55029,0 -3.10058,-3.10058 8.26821,-31.31582 15.45121,-41.754422 1.0852,-8.268203 7.23468,-8.268203 z m 55.34529,0.155029 q 17.15652,4.185778 24.494552,11.988895 3.46231,9.611781 3.46231,14.986121 -3.617339,20.51548 -8.474912,20.51548 -7.28635,5.47768 -19.48195,5.47768 -19.12022,0 -25.4764,-19.48195 l -0.51676,-4.49584 q 0,-21.393974 23.46102,-28.473623 1.70532,0 2.53214,-0.516763 z M -135.99248,113.028 q 3.15225,15.96797 16.01964,15.96797 h 5.0126 q 12.97074,-3.0489 12.97074,-14.98612 0,-17.001491 -11.47213,-17.001491 -6.56289,-0.98185 -8.00982,-0.98185 -10.18023,0 -14.52103,13.487511 z M -27.265603,85.019464 q 4.495836,0 4.495836,5.632713 0,3.358958 -1.085202,12.970743 0,0.82682 1.085202,5.06428 -0.568439,8.83664 -0.568439,12.97074 0,1.18855 0.568439,6.20115 -2.428785,6.76959 -6.201153,6.76959 -4.28913,0 -9.560109,-14.10762 -5.787743,-3.9274 -13.539183,-3.9274 h -2.22208 q -12.402304,0 -12.402304,8.99168 -0.310058,12.4023 -5.064275,12.4023 -3.565662,0 -5.064274,-6.76959 1.085201,-8.88832 1.085201,-10.12855 -0.568439,-9.1467 -3.927396,-25.373048 1.343583,-9.56011 2.842195,-9.56011 h 1.65364 q 7.90647,0 7.90647,15.761258 0,4.49584 4.495835,5.06428 h 14.676061 q 14.055945,0 14.055945,-7.286355 0,-3.824044 -1.136878,-9.043348 0,-5.632713 7.906469,-5.632713 z m 18.7584912,-4.28913 H -10.0574 l -3.203929,-18.551781 q -0.206705,-1.188554 -0.206705,-1.705317 0,-1.912022 1.033526,-2.945547 1.085201,-1.033526 3.1005759,-1.033526 2.0153745,0 3.1005761,1.033526 1.136878,0.981849 1.136878,2.893871 0,0.41341 -0.2067051,1.756993 z M 62.341027,63.728841 h 0.516763 q 4.70254,0 4.70254,6.252829 -1.550288,15.08947 -2.06705,29.300444 0.516762,5.736066 1.550288,8.371556 -1.550288,3.56566 -1.550288,5.73607 v 5.27098 q 0,5.58103 2.583813,15.14114 -1.395259,4.18578 -5.219303,4.18578 h -1.033525 q -3.307282,0 -10.490283,-10.43861 -13.384154,-12.1956 -19.843688,-22.53085 -8.371555,-5.219303 -8.888318,-5.219303 -3.669015,0.723463 -3.669015,2.118723 v 2.06705 q 0,7.90647 1.033525,12.55734 0,19.89536 -5.219303,19.89536 -3.979073,0 -5.736066,-7.85479 0.5167626,-7.95815 0.5167626,-14.67606 v -1.55029 q 0,-0.51676 -0.5167626,-0.51676 1.033525,-2.06705 1.033525,-5.73607 v -8.371554 q 0,-2.842194 1.550288,-7.854793 v -0.516762 q -5.2193028,-16.48473 -5.2193028,-18.2934 0,-2.377108 4.1857778,-4.70254 4.960922,0.310057 18.293399,21.445652 l 13.590859,15.141147 q 7.699765,10.95537 12.040571,10.95537 2.63549,-1.18856 2.63549,-4.70254 0,-7.38971 -0.568439,-26.148194 1.085202,-3.87572 1.085202,-4.702541 -1.085202,-4.70254 -1.085202,-6.769591 0.82682,-7.854793 5.787742,-7.854793 z m 26.871664,21.135594 q 3.979073,0 6.51121,7.596412 -1.65364,8.061493 -1.65364,25.993163 3.048899,9.76682 9.250049,9.76682 h 3.25561 q 8.62993,0 10.28358,-11.36878 v -1.08521 q 0,-5.32265 -1.08521,-18.448424 0,-10.80034 6.51121,-11.937218 2.37711,0 3.77237,5.426008 -0.51676,2.842195 -0.51676,3.255605 0.51676,11.937219 0.51676,17.879989 l 0.56844,2.1704 q 0,23.87444 -22.2208,23.87444 -15.86461,0 -21.187266,-15.70959 0,-1.24023 -0.516763,-2.1704 0.516763,-3.72069 0.516763,-5.99445 v -2.68716 q 0,-1.9637 -0.516763,-4.85757 1.601965,-5.63271 1.601965,-15.761264 0,-3.927396 4.909245,-5.942771 z m 57.102289,0.41341 q 8.26821,0.568439 12.09225,0.568439 h 13.17745 q 17.00149,0 17.00149,5.994448 -2.79052,4.960921 -7.13132,4.960921 -16.17467,-1.085201 -17.56993,-1.085201 h -4.39249 q -7.69976,0.878496 -7.69976,6.046128 v 0.51676 q 0,6.04612 7.69976,6.04612 5.11595,0 10.43861,-1.0852 8.21653,1.24023 8.21653,4.39248 0,5.78775 -14.77942,6.56289 l -6.61456,-0.51676 q -6.04612,2.11872 -6.04612,6.56288 0,1.49861 3.30728,7.69977 0,4.49583 -8.21653,6.04612 h -1.65364 q -4.96092,-2.53214 -4.96092,-7.13132 1.0852,-7.75145 1.0852,-10.43861 -1.0852,-3.51399 -1.0852,-4.39248 2.73884,-9.45676 2.73884,-14.26265 l -1.65364,-9.921848 q 0,-4.44416 6.04612,-6.562887 z m 58.29084,0 q 8.2682,0.568439 12.09224,0.568439 h 13.17745 q 17.0015,0 17.0015,5.994448 -2.79052,4.960921 -7.13133,4.960921 -16.17467,-1.085201 -17.56993,-1.085201 h -4.39248 q -7.69977,0.878496 -7.69977,6.046128 v 0.51676 q 0,6.04612 7.69977,6.04612 5.11595,0 10.4386,-1.0852 8.21653,1.24023 8.21653,4.39248 0,5.78775 -14.77941,6.56289 l -6.61457,-0.51676 q -6.04612,2.11872 -6.04612,6.56288 0,1.49861 3.30728,7.69977 0,4.49583 -8.21653,6.04612 h -1.65364 q -4.96092,-2.53214 -4.96092,-7.13132 1.0852,-7.75145 1.0852,-10.43861 -1.0852,-3.51399 -1.0852,-4.39248 2.73884,-9.45676 2.73884,-14.26265 l -1.65364,-9.921848 q 0,-4.44416 6.04613,-6.562887 z"
       id="text3"
       aria-label="Pharaoh'Nuff" />
  </g>
</svg>
